# xmcd
#
# Track frame offsets: 
#        150
#        13536
#        25340
#        38405
#        48596
#        58226
#        70948
#        82408
#        96777
#        107862
#        121108
#        135515
#        145505
#        155761
#        168619
#        178341
#        193437
#
# Disc length: 2720 seconds
#
# Revision: 1
# Processed by: cddbd v1.5.2PL0 Copyright (c) Steve Scherf et al.
# Submitted via: ExactAudioCopy v1.1
#
DISCID=f70a9e11
DTITLE=Ann Peebles - Complete Ann Peebles on Hi Records Vol 1
DYEAR=2003
DGENRE=Soul
TTITLE0=Give Me Some Credit (stereo)
TTITLE1=Crazy About You Baby (stereo)
TTITLE2=Make Me Yours (stereo)
TTITLE3=My Man (stereo)
TTITLE4=Solid Foundation (stereo)
TTITLE5=Chain Of Fools (stereo)
TTITLE6=It's Your Thing (stereo)
TTITLE7=Walk Away (stereo)
TTITLE8=Rescue Me (stereo)
TTITLE9=Won't You Try Me (stereo)
TTITLE10=Steal Away (stereo)
TTITLE11=Respect (stereo)
TTITLE12=I Can't Let You Go (mono)
TTITLE13=Part Time Love
TTITLE14=I'll Get Along
TTITLE15=I Still Love You
TTITLE16=Generation Gap Between Us
EXTD=
EXTT0=
EXTT1=
EXTT2=
EXTT3=
EXTT4=
EXTT5=
EXTT6=
EXTT7=
EXTT8=
EXTT9=
EXTT10=
EXTT11=
EXTT12=
EXTT13=
EXTT14=
EXTT15=
EXTT16=
PLAYORDER=
